<svg width="152" height="156" viewBox="0 0 152 156" fill="none" xmlns="http://www.w3.org/2000/svg">
<path d="M119.877 78.6125C119.877 75.65 119.615 72.8375 119.165 70.1H76.7896V87.0125H101.052C99.9646 92.5625 96.7771 97.25 92.0521 100.437V111.687H106.527C115.002 103.85 119.877 92.3 119.877 78.6125Z" fill="#4285F4"/>
<path d="M76.7896 122.6C88.9396 122.6 99.1021 118.55 106.527 111.687L92.0521 100.437C88.0021 103.137 82.8646 104.787 76.7896 104.787C65.0521 104.787 55.1146 96.875 51.5521 86.1875H36.6271V97.775C44.0146 112.475 59.2021 122.6 76.7896 122.6Z" fill="#34A853"/>
<path d="M51.5521 86.1875C50.6146 83.4875 50.1271 80.6 50.1271 77.6C50.1271 74.6 50.6521 71.7125 51.5521 69.0125V57.425H36.6271C33.5521 63.5 31.7896 70.325 31.7896 77.6C31.7896 84.875 33.5521 91.7 36.6271 97.775L51.5521 86.1875Z" fill="#FBBC05"/>
<path d="M76.7896 50.4125C83.4271 50.4125 89.3521 52.7 94.0396 57.1625L106.865 44.3375C99.1021 37.0625 88.9396 32.6 76.7896 32.6C59.2021 32.6 44.0146 42.725 36.6271 57.425L51.5521 69.0125C55.1146 58.325 65.0521 50.4125 76.7896 50.4125Z" fill="#EA4335"/>
</svg>
