<svg width="152" height="128" viewBox="0 0 152 128" fill="none" xmlns="http://www.w3.org/2000/svg">
<path fill-rule="evenodd" clip-rule="evenodd" d="M114.315 18.8333H37.6177C33.9491 18.8333 30.8334 21.7347 30.8334 25.309V102.353C30.8334 105.932 32.8777 108.833 36.5462 108.833H113.243C116.916 108.833 120.833 105.932 120.833 102.353V25.309C120.833 21.7347 117.988 18.8333 114.315 18.8333ZM65.1191 53.119H77.2348V59.2947H77.3677C79.2148 55.9647 84.6705 52.5833 91.4162 52.5833C104.363 52.5833 107.976 59.4576 107.976 72.1905V95.9762H95.1191V74.5348C95.1191 68.8348 92.8434 63.8333 87.5205 63.8333C81.0577 63.8333 77.9762 68.209 77.9762 75.3919V95.9762H65.1191V53.119ZM43.6905 95.9762H56.5477V53.119H43.6905V95.9762ZM58.1548 38.119C58.1548 42.559 54.5591 46.1547 50.1191 46.1547C45.6791 46.1547 42.0834 42.559 42.0834 38.119C42.0834 33.679 45.6791 30.0833 50.1191 30.0833C54.5591 30.0833 58.1548 33.679 58.1548 38.119Z" fill="#0A66C2"/>
<path d="M58.1548 38.119C58.1548 42.559 54.5591 46.1547 50.1191 46.1547C45.6791 46.1547 42.0834 42.559 42.0834 38.119C42.0834 33.679 45.6791 30.0833 50.1191 30.0833C54.5591 30.0833 58.1548 33.679 58.1548 38.119Z" fill="white"/>
<path d="M43.6905 95.9762H56.5477V53.119H43.6905V95.9762Z" fill="white"/>
<path d="M65.1191 53.119H77.2348V59.2947H77.3677C79.2148 55.9647 84.6705 52.5833 91.4162 52.5833C104.363 52.5833 107.976 59.4576 107.976 72.1905V95.9762H95.1191V74.5348C95.1191 68.8348 92.8434 63.8333 87.5205 63.8333C81.0577 63.8333 77.9762 68.209 77.9762 75.3919V95.9762H65.1191V53.119Z" fill="white"/>
</svg>
