<svg width="152" height="128" viewBox="0 0 152 128" fill="none" xmlns="http://www.w3.org/2000/svg">
<path d="M105.316 18.8333C94.2109 18.8333 85.5298 27.1976 77.6714 37.8227C66.8724 24.0727 57.8411 18.8333 47.0333 18.8333C24.9989 18.8333 8.11609 47.5092 8.11609 77.8609C8.11609 96.854 17.3047 108.833 32.6954 108.833C43.7727 108.833 51.7394 103.611 65.9023 78.854C65.9023 78.854 71.8061 68.4283 75.8676 61.2466C77.2908 63.5444 78.7897 66.0205 80.3644 68.6747L87.0058 79.8471C99.943 101.496 107.151 108.833 120.213 108.833C135.206 108.833 143.551 96.6903 143.551 77.3023C143.551 45.523 126.287 18.8333 105.316 18.8333ZM55.1023 72.1506C43.6195 90.1506 39.6471 94.1851 33.254 94.1851C26.6747 94.1851 22.7644 88.409 22.7644 78.1092C22.7644 56.0747 33.7506 33.5437 46.8471 33.5437C53.9393 33.5437 59.866 37.6396 68.9441 50.6359C60.324 63.8579 55.1023 72.1506 55.1023 72.1506ZM98.4399 69.8846L90.4992 56.6412C88.3503 53.1463 86.2851 49.9294 84.3037 46.9905C91.4605 35.9444 97.3639 30.4403 104.385 30.4403C118.971 30.4403 130.64 51.9161 130.64 78.2954C130.64 88.3506 127.347 94.1851 120.523 94.1851C113.983 94.1851 110.858 89.8656 98.4399 69.8846Z" fill="#0082FB"/>
</svg>
