<svg width="152" height="128" viewBox="0 0 152 128" fill="none" xmlns="http://www.w3.org/2000/svg">
<path d="M96.8425 72.8783C95.9384 72.4287 90.0606 69.7324 89.1565 69.2828C88.2524 68.8332 87.348 68.8332 86.4439 69.7324C85.5398 70.6312 83.7312 73.3279 82.8271 74.2267C82.3746 75.1255 81.4706 75.1255 80.5665 74.6759C77.4013 73.3279 74.2366 71.53 71.524 69.2828C69.2634 67.0357 67.0028 64.3389 65.1943 61.6422C64.7422 60.7434 65.1943 59.8447 65.6464 59.3951C66.0985 58.9455 66.5507 58.0468 67.4549 57.5974C67.907 57.1479 68.3591 56.249 68.3591 55.7996C68.8113 55.3502 68.8113 54.4513 68.3591 54.0019C67.907 53.5524 65.6464 48.1592 64.7422 45.912C64.2901 42.7659 63.3858 42.7659 62.4816 42.7659C62.0295 42.7659 61.1253 42.7659 60.221 42.7659C59.3168 42.7659 57.9604 43.6648 57.5083 44.1142C54.7956 46.8108 53.4392 49.9569 53.4392 53.5524C53.8914 57.5974 55.2477 61.6422 57.9604 65.2377C62.9337 72.4287 69.2634 78.2714 76.9493 81.8669C79.2099 82.766 81.0185 83.6648 83.2791 84.1144C85.5398 85.0132 87.8 85.0132 90.5131 84.5636C93.6778 84.1144 96.3905 81.8669 98.1991 79.1705C99.1031 77.3726 99.1032 75.575 98.6511 73.7771C98.6511 73.7771 97.7466 73.3279 96.8425 72.8783ZM108.146 31.9794C90.5131 14.4513 62.0295 14.4513 44.3969 31.9794C29.9291 46.3614 27.2164 68.384 37.163 85.9119L30.8334 108.833L54.7956 102.541C61.5774 106.137 68.8113 107.935 76.0452 107.935C100.912 107.935 120.805 88.1591 120.805 63.4402C121.257 51.7547 116.284 40.5187 108.146 31.9794ZM95.9384 94.9009C90.0606 98.4964 83.2791 100.744 76.0452 100.744C69.2634 100.744 62.9337 98.9456 57.0562 95.7997L55.6998 94.9009L41.6842 98.4964L45.3011 85.0132L44.3969 83.6648C33.5461 65.6873 38.9715 43.2153 56.6041 31.9794C74.2366 20.7434 96.8425 26.5861 107.693 43.6648C118.544 61.193 113.571 84.1144 95.9384 94.9009Z" fill="white"/>
<path fill-rule="evenodd" clip-rule="evenodd" d="M95.9384 94.9009C90.0606 98.4964 83.2791 100.744 76.0452 100.744C69.2634 100.744 62.9337 98.9456 57.0562 95.7997L55.6998 94.9009L41.6842 98.4964L45.3011 85.0132L44.3969 83.6648C33.5461 65.6873 38.9715 43.2153 56.6041 31.9794C74.2366 20.7434 96.8425 26.5861 107.693 43.6648C118.544 61.193 113.571 84.1144 95.9384 94.9009ZM89.1565 69.2828C90.0606 69.7324 95.9384 72.4287 96.8425 72.8783C97.7466 73.3279 98.6511 73.7771 98.6511 73.7771C99.1032 75.575 99.1031 77.3726 98.1991 79.1705C96.3905 81.8669 93.6778 84.1144 90.5131 84.5636C87.8 85.0132 85.5398 85.0132 83.2791 84.1144C81.0185 83.6648 79.2099 82.766 76.9493 81.8669C69.2634 78.2714 62.9337 72.4287 57.9604 65.2377C55.2477 61.6422 53.8914 57.5974 53.4392 53.5524C53.4392 49.9569 54.7956 46.8108 57.5083 44.1142C57.9604 43.6648 59.3168 42.7659 60.221 42.7659H62.4816C63.3858 42.7659 64.2901 42.7659 64.7422 45.912C65.6464 48.1592 67.907 53.5524 68.3591 54.0019C68.8113 54.4513 68.8113 55.3502 68.3591 55.7996C68.3591 56.249 67.907 57.1479 67.4549 57.5974C66.5507 58.0468 66.0985 58.9455 65.6464 59.3951C65.1943 59.8447 64.7422 60.7434 65.1943 61.6422C67.0028 64.3389 69.2634 67.0357 71.524 69.2828C74.2366 71.53 77.4013 73.3279 80.5665 74.6759C81.4706 75.1255 82.3746 75.1255 82.8271 74.2267C83.7312 73.3279 85.5398 70.6312 86.4439 69.7324C87.348 68.8332 88.2524 68.8332 89.1565 69.2828Z" fill="#25D366"/>
</svg>
