<svg width="127" height="127" viewBox="0 0 127 127" fill="none" xmlns="http://www.w3.org/2000/svg">
<g clip-path="url(#clip0_2332_38)">
<path d="M116.954 0H10.0456C4.49758 0 0 4.49758 0 10.0456V116.954C0 122.502 4.49758 127 10.0456 127H116.954C122.502 127 127 122.502 127 116.954V10.0456C127 4.49758 122.502 0 116.954 0Z" fill="#EFEFEF"/>
<path d="M42.1988 52.6614C30.29 37.929 18.5054 23.3496 6.63647 8.67045C6.95588 8.64826 7.17325 8.61943 7.3884 8.61943C15.1901 8.61943 22.991 8.61943 30.7913 8.61943C31.0657 8.60292 31.3397 8.65754 31.5869 8.778C31.834 8.89846 32.0459 9.08068 32.2019 9.30703C40.1678 19.1774 48.1528 29.0345 56.1571 38.8783C60.9149 44.7318 65.7103 50.552 70.4903 56.3878C70.6389 56.5674 70.8097 56.7316 71.0692 57.0044C72.3401 55.4163 73.6111 53.8991 74.8199 52.311C78.4687 47.5554 81.8401 42.618 84.3732 37.1593C85.684 34.3357 86.6755 31.4256 86.6622 28.256C86.6511 25.5389 85.358 23.7799 82.6586 23.4073C80.008 23.0391 77.313 22.9947 74.6358 22.8328C73.8662 22.7862 73.0832 22.8328 72.3091 22.8328C73.5157 18.1061 74.709 13.4371 75.9245 8.67266C76.0687 8.67266 76.3304 8.63717 76.5899 8.63939C80.1766 8.63939 83.7632 8.70372 87.3498 8.63939C90.8388 8.58616 94.0328 9.55102 97.0982 11.1258C101.366 13.3084 103.566 16.9483 104.198 21.5774C105.012 27.5329 103.812 33.1846 101.284 38.5745C100.299 40.6728 99.3274 42.8021 98.0897 44.7496C94.9445 49.6848 91.6861 54.5645 87.8222 59.0007C85.2537 61.9463 82.6164 64.8342 79.9281 67.8397L120.364 118.314C119.949 118.341 119.698 118.369 119.459 118.369C111.241 118.369 103.02 118.37 94.8025 118.389C94.5277 118.407 94.253 118.353 94.0056 118.232C93.7583 118.111 93.5467 117.927 93.3918 117.7C88.898 111.974 84.3924 106.257 79.8749 100.55C75.1963 94.6258 70.5139 88.705 65.8279 82.7872C64.1421 80.6579 62.4719 78.5175 60.7729 76.4014C56.6162 71.2244 52.4485 66.0563 48.1809 60.7552C47.2937 61.9573 46.3355 63.1218 45.5192 64.3839C40.5907 72.0651 36.2344 80.0324 33.5195 88.796C32.6322 91.6795 32.1709 94.6539 32.8053 97.6904C33.4707 100.891 35.4669 102.856 38.6366 103.271C41.489 103.644 44.4035 103.568 47.287 103.681C47.8837 103.706 48.4804 103.681 49.1613 103.681C49.0925 103.928 49.0482 104.125 48.9883 104.296C47.4822 108.794 45.9828 113.297 44.4479 117.786C44.3834 117.928 44.286 118.053 44.1637 118.15C44.0414 118.246 43.8978 118.313 43.7448 118.343C31.85 118.369 19.9545 118.375 8.05826 118.361C7.97429 118.353 7.89115 118.338 7.80983 118.316C13.2153 93.3075 24.7825 71.5128 42.1988 52.6614Z" fill="black"/>
</g>
<defs>
<clipPath id="clip0_2332_38">
<rect width="127" height="127" fill="white"/>
</clipPath>
</defs>
</svg>
