<svg width="129" height="90" viewBox="0 0 129 90" fill="none" xmlns="http://www.w3.org/2000/svg">
<path fill-rule="evenodd" clip-rule="evenodd" d="M114.511 2.68815C120.046 4.1698 124.396 8.51954 125.877 14.0546C128.555 24.0769 128.565 45 128.565 45C128.565 45 128.565 65.9232 125.877 75.9456C124.396 81.4806 120.046 85.8303 114.511 87.3117C104.489 90 64.2825 90 64.2825 90C64.2825 90 24.0769 90 14.0545 87.3117C8.51953 85.8303 4.1698 81.4806 2.68815 75.9456C6.86646e-07 65.9232 0 45 0 45C0 45 6.86646e-07 24.0769 2.68815 14.0546C4.1698 8.51954 8.51953 4.1698 14.0545 2.68815C24.0769 8.58307e-07 64.2825 0 64.2825 0C64.2825 0 104.489 8.58307e-07 114.511 2.68815ZM84.8147 45.0018L51.4139 64.2843V25.719L84.8147 45.0018Z" fill="#FF0000"/>
<path d="M51.4139 64.2843L84.8147 45.0018L51.4139 25.719V64.2843Z" fill="white"/>
</svg>
